<?xml version="1.0" encoding="utf-8"?>
<!DOCTYPE svg PUBLIC "-//W3C//DTD SVG 20010904//EN" "http://www.w3.org/TR/2001/REC-SVG-20010904/DTD/svg10.dtd">
<svg version="1.0" xmlns="http://www.w3.org/2000/svg" width="86px" height="42px" viewBox="0 0 86 42" preserveAspectRatio="xMidYMid meet">
 <g fill="#225cff">
  <path d="M54.2 37.7 c-4.9 -5.2 -1.7 -10.8 13.1 -23.3 l10.2 -8.5 3.7 4.3 c2.1 2.4 3.8 4.6 3.8 5 0 0.8 -27.1 24.8 -28 24.8 -0.4 0 -1.6 -1 -2.8 -2.3z"/>
  <path d="M14.2 24.7 l-13.2 -13.3 4.8 -4.7 4.8 -4.7 8.9 9 c4.9 5 9.3 9 9.8 9 0.4 0 4.5 -3.2 9 -7.1 11.2 -9.7 10.8 -9.6 14.6 -4.9 1.7 2.1 3.1 4.5 3.1 5.4 0 1.4 -26 24.6 -27.6 24.6 -0.5 0 -6.9 -6 -14.2 -13.3z"/>
 </g>
</svg>